<svg xmlns="http://www.w3.org/2000/svg" width="90.814" height="90.815" viewBox="0 0 90.814 90.815">
  <g id="Group_31" data-name="Group 31" transform="translate(-1000.41 -967.81)">
    <path id="Path_103" data-name="Path 103" d="M1056.554,1058.625a1.175,1.175,0,0,1-.891-.408c-.631-.728-1.213-1.425-1.763-2.083-3.1-3.7-4.965-5.941-8.84-6.022-.071,0-.145,0-.216,0-3.744,0-5.692,2.145-8.883,5.656-.576.635-1.187,1.306-1.845,2.006a1.179,1.179,0,0,1-1.331.272l-11.124-4.882a1.176,1.176,0,0,1-.7-1.164c.069-.955.15-1.858.227-2.715.435-4.787.7-7.683-1.973-10.492l-.03-.03c-2.684-2.8-5.6-2.658-10.425-2.424-.856.04-1.76.084-2.719.113a1.19,1.19,0,0,1-1.133-.749l-4.417-11.319a1.179,1.179,0,0,1,.327-1.318c.728-.632,1.425-1.214,2.084-1.765,3.705-3.095,5.94-4.963,6.021-8.837l0-.05c.064-3.853-2.092-5.812-5.655-9.048-.635-.578-1.307-1.187-2.007-1.846a1.181,1.181,0,0,1-.272-1.331l4.881-11.124a1.168,1.168,0,0,1,1.162-.7c.964.069,1.869.15,2.726.227,4.806.425,7.71.689,10.506-1.994l.009-.009h0c2.795-2.683,2.656-5.593,2.425-10.416-.042-.858-.084-1.765-.114-2.729a1.178,1.178,0,0,1,.75-1.133l11.318-4.416a1.176,1.176,0,0,1,1.318.326c.632.729,1.214,1.426,1.765,2.084,3.094,3.7,4.962,5.939,8.828,6.024h.012c3.86.1,5.852-2.081,9.1-5.663.575-.632,1.183-1.3,1.838-2a1.181,1.181,0,0,1,1.331-.271l11.124,4.88a1.177,1.177,0,0,1,.7,1.163c-.068.96-.148,1.863-.225,2.717-.429,4.815-.689,7.722,2,10.52a.371.371,0,0,1,.028.03c2.672,2.763,5.583,2.622,10.38,2.4.861-.041,1.771-.084,2.739-.114a1.231,1.231,0,0,1,1.133.75l4.415,11.32a1.176,1.176,0,0,1-.326,1.318c-.725.628-1.42,1.208-2.076,1.757-3.713,3.1-5.954,4.975-6.031,8.851s2.079,5.844,5.656,9.092c.633.577,1.3,1.186,2,1.844a1.177,1.177,0,0,1,.272,1.33l-4.879,11.126a1.18,1.18,0,0,1-1.163.7c-.972-.069-1.885-.15-2.748-.227-4.792-.429-7.688-.688-10.456,1.97l-.015.013c-2.813,2.712-2.674,5.627-2.444,10.455.041.853.083,1.754.113,2.71a1.177,1.177,0,0,1-.75,1.133l-11.319,4.417A1.178,1.178,0,0,1,1056.554,1058.625Zm-11.387-10.866c4.913.133,7.277,2.96,10.54,6.864.382.457.779.932,1.2,1.423l9.763-3.809c-.024-.639-.053-1.252-.082-1.841-.243-5.114-.42-8.809,3.162-12.262l.009-.009c3.546-3.409,7.224-3.079,12.307-2.626.6.054,1.226.11,1.879.163l4.209-9.6q-.708-.654-1.368-1.249c-3.791-3.443-6.531-5.931-6.427-10.885s2.942-7.322,6.876-10.611c.454-.379.927-.774,1.414-1.189l-3.808-9.765q-.975.039-1.869.084c-5.107.239-8.8.417-12.218-3.147-.012-.012-.024-.025-.036-.039-3.393-3.57-3.065-7.246-2.612-12.324.053-.591.108-1.206.16-1.848l-9.595-4.208c-.434.469-.846.923-1.244,1.36-3.383,3.726-5.844,6.436-10.629,6.436-.089,0-.192,0-.271,0-4.943-.105-7.314-2.942-10.595-6.869-.381-.455-.779-.931-1.2-1.422l-9.763,3.809c.024.645.054,1.264.083,1.859.244,5.108.421,8.8-3.14,12.221l-.006.006c-3.575,3.433-7.257,3.108-12.356,2.649-.595-.053-1.212-.108-1.858-.16l-4.209,9.6c.473.438.93.853,1.37,1.252,3.791,3.444,6.529,5.931,6.426,10.888l0,.054c-.122,4.912-2.952,7.277-6.865,10.545-.457.382-.932.779-1.423,1.2l3.81,9.762c.64-.024,1.256-.054,1.848-.083,5.1-.245,8.789-.423,12.207,3.116l.033.032c3.445,3.593,3.093,7.464,2.648,12.365-.054.592-.11,1.206-.161,1.844l9.594,4.211c.436-.473.851-.929,1.252-1.37,3.379-3.719,5.839-6.427,10.614-6.427A2.692,2.692,0,0,1,1045.167,1047.759Z" fill="#863399"/>
    <path id="Path_104" data-name="Path 104" d="M1050.376,1003.929a4.508,4.508,0,0,0-4.111,2.1l-.448.729-.448-.729a4.506,4.506,0,0,0-4.11-2.1,5.825,5.825,0,0,0-5.69,6.023c-.021,5.753,6.02,9.865,10.23,12.553,4.274-2.688,10.286-6.8,10.266-12.553A5.825,5.825,0,0,0,1050.376,1003.929Z" fill="#e1251b"/>
    <path id="Path_105" data-name="Path 105" d="M1050.647,1050.261h-9.661a1.179,1.179,0,0,1-1.11-.784c-.257-.723-.487-1.41-.7-2.058-1.242-3.695-1.925-5.731-4.671-6.868h0l-.039-.017c-2.738-1.118-4.773-.1-8.137,1.57-.612.3-1.257.625-1.947.953a1.179,1.179,0,0,1-1.339-.231l-6.83-6.832a1.178,1.178,0,0,1-.231-1.339c.329-.69.651-1.336.957-1.948,1.682-3.371,2.7-5.406,1.55-8.173-1.138-2.747-3.177-3.431-6.879-4.674-.646-.217-1.328-.447-2.048-.7a1.179,1.179,0,0,1-.783-1.11v-9.661a1.179,1.179,0,0,1,.783-1.11c.723-.257,1.409-.488,2.056-.7,3.7-1.241,5.732-1.925,6.87-4.671s.185-4.679-1.551-8.172c-.3-.613-.626-1.259-.955-1.952a1.179,1.179,0,0,1,.231-1.339l6.83-6.829a1.177,1.177,0,0,1,1.339-.231c.693.33,1.342.652,1.955.956,3.487,1.735,5.411,2.69,8.153,1.556l.011,0,0,0c2.746-1.138,3.429-3.174,4.671-6.869.218-.649.449-1.334.7-2.058a1.179,1.179,0,0,1,1.11-.783h9.661a1.178,1.178,0,0,1,1.11.783c.258.724.488,1.41.705,2.058,1.239,3.685,1.922,5.72,4.645,6.858l.037.015c2.748,1.138,4.79.121,8.169-1.558.611-.3,1.255-.625,1.944-.952a1.173,1.173,0,0,1,1.339.231l6.829,6.829a1.178,1.178,0,0,1,.231,1.338c-.33.694-.65,1.342-.955,1.954-1.736,3.5-2.692,5.421-1.551,8.167s3.171,3.43,6.867,4.672c.648.219,1.334.45,2.06.708a1.179,1.179,0,0,1,.783,1.11v9.661a1.179,1.179,0,0,1-.783,1.11c-.719.255-1.4.484-2.046.7-3.706,1.244-5.747,1.929-6.884,4.677s-.183,4.678,1.556,8.172c.3.611.625,1.256.953,1.946a1.178,1.178,0,0,1-.231,1.339l-6.829,6.832a1.178,1.178,0,0,1-1.339.231c-.7-.332-1.353-.658-1.97-.964-3.473-1.725-5.388-2.677-8.1-1.566l-.049.022c-2.752,1.153-3.437,3.192-4.678,6.884-.217.645-.446,1.327-.7,2.044A1.178,1.178,0,0,1,1050.647,1050.261Zm-8.825-2.356h7.989c.145-.421.282-.829.414-1.223,1.268-3.768,2.268-6.745,6.011-8.311l.021-.009c3.711-1.54,6.382-.215,10.079,1.622.379.189.774.385,1.185.585l5.648-5.649c-.2-.4-.389-.788-.575-1.161-1.773-3.564-3.174-6.38-1.623-10.124s4.531-4.739,8.31-6.009c.394-.132.8-.269,1.223-.414v-7.989c-.427-.147-.842-.287-1.239-.421-3.917-1.317-6.746-2.269-8.291-6s-.153-6.555,1.617-10.121q.281-.562.578-1.169l-5.648-5.648c-.4.2-.786.388-1.159.573-3.56,1.771-6.373,3.169-10.109,1.632l-.024-.01c-3.732-1.547-4.733-4.525-6-8.295q-.2-.6-.419-1.235h-7.989c-.147.425-.285.838-.418,1.235-1.264,3.763-2.264,6.738-5.985,8.288l-.018.008c-3.742,1.553-6.555.154-10.118-1.617-.375-.186-.765-.381-1.171-.579l-5.647,5.648c.2.405.391.793.577,1.168,1.77,3.563,3.17,6.378,1.618,10.12s-4.528,4.738-8.3,6c-.4.134-.808.272-1.234.418v7.989c.423.145.832.282,1.226.415,3.775,1.268,6.756,2.268,8.3,6,1.558,3.761.157,6.57-1.618,10.127-.186.374-.379.76-.576,1.162l5.647,5.649c.4-.2.789-.388,1.163-.575,3.564-1.772,6.379-3.172,10.125-1.622l.052.024c3.695,1.553,4.691,4.521,5.952,8.273C1041.537,1047.067,1041.676,1047.478,1041.822,1047.905Z" fill="#863399"/>
    <path id="Path_106" data-name="Path 106" d="M1052.549,1042.127a1.175,1.175,0,0,1-.891-.408c-.4-.458-.764-.9-1.112-1.313-2.069-2.476-3.074-3.572-5.212-3.617s-3.2,1.011-5.37,3.4c-.365.4-.749.823-1.163,1.264a1.181,1.181,0,0,1-1.331.271l-6.974-3.06a1.177,1.177,0,0,1-.7-1.164c.042-.6.094-1.172.144-1.713.291-3.21.356-4.695-1.136-6.251s-2.97-1.539-6.2-1.386c-.539.026-1.108.054-1.713.072a1.216,1.216,0,0,1-1.133-.749l-2.77-7.1a1.175,1.175,0,0,1,.327-1.318c.457-.4.9-.764,1.311-1.11,2.477-2.069,3.575-3.074,3.619-5.216s-1.009-3.2-3.4-5.368c-.4-.363-.822-.747-1.264-1.163a1.178,1.178,0,0,1-.271-1.33l3.059-6.975a1.168,1.168,0,0,1,1.163-.7c.606.043,1.176.1,1.713.142,3.218.289,4.7.352,6.252-1.133s1.541-2.971,1.387-6.2c-.026-.54-.054-1.111-.072-1.717a1.178,1.178,0,0,1,.75-1.133l7.1-2.768a1.179,1.179,0,0,1,1.318.326c.4.46.766.9,1.114,1.315,2.069,2.475,3.073,3.571,5.21,3.616h.128c2.065,0,3.118-1.062,5.248-3.407.362-.4.744-.82,1.157-1.259a1.178,1.178,0,0,1,1.33-.272l6.975,3.06a1.178,1.178,0,0,1,.7,1.163c-.043.6-.094,1.172-.142,1.71-.287,3.219-.351,4.708,1.133,6.252l.029.031c1.48,1.512,2.968,1.51,6.158,1.357.541-.025,1.115-.052,1.726-.071h.036a1.178,1.178,0,0,1,1.1.75l2.769,7.1a1.179,1.179,0,0,1-.327,1.318c-.457.4-.894.761-1.308,1.107-2.481,2.074-3.58,3.082-3.623,5.221s1.01,3.2,3.4,5.368c.4.362.823.746,1.263,1.16a1.18,1.18,0,0,1,.272,1.331l-3.06,6.976a1.18,1.18,0,0,1-1.163.7c-.612-.043-1.187-.094-1.729-.144-3.208-.282-4.691-.35-6.218,1.12h0l-.02.018c-1.538,1.493-1.535,2.985-1.382,6.2.025.537.052,1.1.071,1.708a1.179,1.179,0,0,1-.75,1.133l-7.1,2.769A1.191,1.191,0,0,1,1052.549,1042.127Zm-7.348-7.695h.18c3.3.069,4.923,2.008,6.973,4.463.177.211.358.429.547.651l5.536-2.16c-.012-.289-.025-.568-.039-.84-.151-3.2-.271-5.724,2.121-8.028l.034-.031c2.357-2.244,4.862-2.022,8.03-1.737.278.024.565.051.861.075l2.387-5.443-.624-.568c-2.371-2.153-4.243-3.853-4.174-7.159s2.009-4.924,4.467-6.98q.313-.261.647-.543l-2.161-5.536c-.294.012-.579.026-.857.039-3.2.15-5.715.27-8-2.107l-.029-.033c-2.259-2.374-2.035-4.887-1.752-8.063.024-.273.049-.554.073-.843l-5.441-2.387-.565.62c-2.153,2.373-3.853,4.285-7.166,4.178-3.3-.069-4.92-2.007-6.97-4.46-.177-.211-.36-.43-.549-.654l-5.538,2.16c.013.291.027.574.039.847.154,3.2.275,5.721-2.107,8.008s-4.905,2.065-8.094,1.78c-.273-.024-.554-.049-.845-.073l-2.387,5.441.627.572c2.37,2.152,4.241,3.853,4.172,7.158s-2.011,4.924-4.465,6.976l-.649.544,2.16,5.538.843-.039c3.2-.156,5.725-.275,8.011,2.107,2.3,2.4,2.072,4.912,1.782,8.1-.024.273-.05.553-.075.842l5.441,2.388c.2-.214.387-.424.571-.627C1040.334,1036.278,1042.012,1034.432,1045.2,1034.432Z" fill="#863399"/>
    <path id="Path_107" data-name="Path 107" d="M1048.809,1036.617h-5.985a1.179,1.179,0,0,1-1.11-.783c-.16-.451-.3-.877-.439-1.282-.8-2.388-1.187-3.382-2.641-3.984h0l-.014-.006c-1.452-.6-2.429-.166-4.682.954-.382.19-.783.39-1.213.595a1.176,1.176,0,0,1-1.339-.231l-4.232-4.233a1.177,1.177,0,0,1-.231-1.339c.205-.43.406-.833.6-1.216,1.095-2.2,1.553-3.228.948-4.692s-1.6-1.839-3.99-2.642c-.4-.136-.829-.278-1.278-.438a1.179,1.179,0,0,1-.783-1.11v-5.987a1.177,1.177,0,0,1,.783-1.109c.451-.16.878-.3,1.281-.44,2.389-.8,3.383-1.186,3.986-2.641s.173-2.436-.949-4.7c-.19-.38-.39-.783-.595-1.213a1.179,1.179,0,0,1,.231-1.339l4.232-4.231a1.175,1.175,0,0,1,1.337-.231c.434.206.839.407,1.221.6,2.257,1.12,3.23,1.552,4.688.947s1.839-1.6,2.642-3.983c.135-.406.279-.834.44-1.286a1.18,1.18,0,0,1,1.11-.783h5.985a1.177,1.177,0,0,1,1.11.783c.161.452.305.88.441,1.285.8,2.388,1.187,3.38,2.64,3.983s2.439.175,4.7-.95c.381-.19.782-.389,1.211-.593a1.177,1.177,0,0,1,1.339.231l4.231,4.231a1.179,1.179,0,0,1,.231,1.339c-.2.43-.4.833-.593,1.213-1.124,2.261-1.555,3.237-.95,4.694s1.595,1.838,3.984,2.641c.4.136.832.28,1.284.441a1.177,1.177,0,0,1,.783,1.109v5.987a1.179,1.179,0,0,1-.783,1.11c-.449.16-.874.3-1.277.438-2.4.8-3.39,1.188-3.992,2.643s-.174,2.434.949,4.692c.189.382.391.784.595,1.215a1.179,1.179,0,0,1-.231,1.339l-4.231,4.233a1.176,1.176,0,0,1-1.339.231c-.436-.207-.843-.409-1.227-.6-2.252-1.121-3.224-1.554-4.664-.952-1.471.612-1.856,1.608-2.662,4-.135.4-.278.826-.437,1.273A1.177,1.177,0,0,1,1048.809,1036.617Zm-5.146-2.355h4.308c.053-.154.1-.3.153-.452.822-2.447,1.472-4.379,3.989-5.424,2.494-1.037,4.314-.13,6.618,1.015l.444.22,3.045-3.046c-.072-.148-.143-.292-.215-.433-1.148-2.31-2.055-4.134-1.015-6.641s2.969-3.153,5.417-3.976l.455-.153v-4.31l-.462-.156c-2.444-.822-4.374-1.47-5.409-3.971s-.132-4.332,1.017-6.645l.212-.431-3.044-3.045c-.147.072-.29.142-.429.213-2.312,1.15-4.136,2.056-6.648,1.017s-3.15-2.967-3.972-5.409c-.05-.152-.1-.306-.156-.463h-4.308c-.055.157-.106.313-.157.463-.821,2.442-1.469,4.371-3.97,5.408s-4.332.134-6.64-1.013l-.437-.217-3.046,3.046.214.432c1.148,2.31,2.055,4.136,1.017,6.644s-2.969,3.152-5.413,3.973c-.149.049-.3.1-.459.154v4.31l.456.153c2.446.822,4.378,1.471,5.415,3.973,1.043,2.519.089,4.432-1.015,6.646l-.215.431,3.046,3.046.43-.213c2.311-1.15,4.137-2.057,6.644-1.018l.021.009c2.487,1.039,3.134,2.966,3.953,5.4C1043.558,1033.951,1043.61,1034.1,1043.663,1034.262Z" fill="#863399"/>
  </g>
</svg>
