<svg xmlns="http://www.w3.org/2000/svg" width="104.138" height="104.138" viewBox="0 0 104.138 104.138">
  <g id="Group_7" data-name="Group 7" transform="translate(-907.931 -1973.404)">
    <path id="Path_1" data-name="Path 1" d="M965.666,2014.2a5.515,5.515,0,0,0-5.031,2.573l-.549.893-.548-.893a5.518,5.518,0,0,0-5.032-2.573,7.13,7.13,0,0,0-6.964,7.373c-.026,7.042,7.368,12.075,12.521,15.365,5.232-3.29,12.592-8.323,12.567-15.365A7.13,7.13,0,0,0,965.666,2014.2Z" fill="#e1251b"/>
    <g id="Group_3" data-name="Group 3">
      <path id="Path_2" data-name="Path 2" d="M939.532,2049.9c-1.092-.231-2.156-.487-3.206-.754a63.222,63.222,0,0,0,5.357,14.223c.951-.2,1.92-.431,2.909-.715A58.523,58.523,0,0,1,939.532,2049.9Z" fill="#f18a00"/>
      <path id="Path_3" data-name="Path 3" d="M986.341,2019.973q-.137-2.669-.4-5.244a92.59,92.59,0,0,0-1.51-9.724c-.231-1.092-.487-2.156-.754-3.207a63.233,63.233,0,0,0-5.367-14.243c-.488-.91-.992-1.788-1.515-2.622-4.538-7.228-10.359-11.521-16.785-11.527v0c-6.435,0-12.265,4.3-16.808,11.542.964.22,1.939.471,2.933.771,3.895-5.918,8.686-9.424,13.863-9.429s9.974,3.507,13.871,9.427q.8,1.212,1.542,2.558a58.52,58.52,0,0,1,5.06,12.771c.284,1.032.557,2.079.8,3.155.486,2.1.9,4.285,1.242,6.537q.379,2.52.63,5.15c.295,3.1.453,6.306.453,9.587s-.158,6.477-.453,9.576c-.166,1.754-.376,3.477-.63,5.159-.341,2.257-.768,4.433-1.255,6.537-.247,1.068-.514,2.11-.8,3.133a58.659,58.659,0,0,1-5.068,12.782c-.5.9-1.017,1.751-1.551,2.563-3.889,5.911-8.665,9.428-13.838,9.435h0c-5.178,0-9.963-3.515-13.858-9.432-.994.3-1.97.552-2.934.773,4.537,7.231,10.352,11.535,16.778,11.542v0c6.433,0,12.255-4.306,16.8-11.545.526-.838,1.038-1.705,1.529-2.62a63.3,63.3,0,0,0,5.365-14.249c.264-1.04.508-2.1.737-3.186a92.582,92.582,0,0,0,1.518-9.727q.266-2.581.4-5.256.138-2.7.14-5.486T986.341,2019.973Z" fill="#f18a00"/>
      <path id="Path_4" data-name="Path 4" d="M938.735,2004.2q-1.611.372-3.153.8a93.14,93.14,0,0,0-1.515,9.721q1.652-2.03,3.461-4.036C937.868,2008.462,938.253,2006.28,938.735,2004.2Z" fill="#f18a00"/>
      <path id="Path_5" data-name="Path 5" d="M944.586,1988.281c-.986-.282-1.953-.516-2.9-.712a63.326,63.326,0,0,0-5.364,14.247q1.575-.4,3.211-.748A58.783,58.783,0,0,1,944.586,1988.281Z" fill="#f18a00"/>
      <path id="Path_6" data-name="Path 6" d="M936.4,2025.473c0-3.3.186-6.5.486-9.617q-1.7,2.055-3.227,4.128-.139,2.7-.142,5.489t.14,5.486q1.513,2.052,3.2,4.09C936.559,2031.95,936.4,2028.75,936.4,2025.473Z" fill="#f18a00"/>
      <path id="Path_7" data-name="Path 7" d="M937.484,2040.208q-1.789-1.984-3.423-3.993a92.393,92.393,0,0,0,1.511,9.726c1.031.284,2.078.557,3.154.8C938.24,2044.646,937.825,2042.461,937.484,2040.208Z" fill="#f18a00"/>
    </g>
    <g id="Group_4" data-name="Group 4">
      <path id="Path_8" data-name="Path 8" d="M990.077,2025.486c.584-.934,1.13-1.865,1.657-2.792a92.309,92.309,0,0,0-5.8-7.965q.266,2.576.4,5.244C987.7,2021.811,988.933,2023.652,990.077,2025.486Z" fill="#36b0c9"/>
      <path id="Path_9" data-name="Path 9" d="M999.751,2039.344a63.11,63.11,0,0,0-6.271-13.871c-.556.934-1.129,1.871-1.74,2.809a58.7,58.7,0,0,1,5.462,12.6C998.094,2040.386,998.946,2039.874,999.751,2039.344Z" fill="#36b0c9"/>
      <path id="Path_10" data-name="Path 10" d="M1000.536,2042.268c-.834.523-1.713,1.027-2.624,1.515,1.428,6.935.526,12.8-3.128,16.463s-9.53,4.56-16.466,3.131c-.491.915-1,1.782-1.529,2.62,8.319,1.905,15.473.836,20.022-3.7h0l.009-.01h0C1001.36,2057.737,1002.438,2050.586,1000.536,2042.268Z" fill="#36b0c9"/>
      <path id="Path_11" data-name="Path 11" d="M960,2058.954a63.317,63.317,0,0,0,13.845,6.269c.534-.812,1.052-1.664,1.551-2.563a58.619,58.619,0,0,1-12.617-5.452C961.851,2057.81,960.924,2058.4,960,2058.954Z" fill="#36b0c9"/>
      <path id="Path_12" data-name="Path 12" d="M982.515,2010.736q-1.818-2.013-3.79-3.989t-3.989-3.789q-1.983-1.789-3.993-3.424a92.8,92.8,0,0,0-7.943-5.807c-.935-.609-1.869-1.18-2.8-1.734a63.241,63.241,0,0,0-13.868-6.276c-.994-.3-1.969-.551-2.933-.771-8.315-1.9-15.464-.832-20.011,3.7h0l-.007.009,0,0h0c-4.539,4.549-5.62,11.7-3.718,20.02.22.962.486,1.941.785,2.932a63.243,63.243,0,0,0,6.275,13.861c.554.931,1.126,1.864,1.734,2.8a92.679,92.679,0,0,0,5.808,7.941q1.634,2.007,3.423,3.993,1.818,2.013,3.79,3.991t3.99,3.789q2.525.381,5.159.631c-2.406-1.987-4.788-4.136-7.11-6.459s-4.472-4.7-6.459-7.111q-1.682-2.035-3.2-4.09c-1.348-1.828-2.605-3.662-3.744-5.486-.585-.936-1.133-1.87-1.661-2.8a58.523,58.523,0,0,1-5.454-12.61c-.282-.984-.523-1.953-.718-2.9-1.43-6.937-.52-12.8,3.137-16.467s9.531-4.556,16.466-3.127c.949.2,1.916.43,2.9.712a58.513,58.513,0,0,1,12.614,5.446c.93.528,1.863,1.075,2.8,1.66q2.742,1.713,5.5,3.745,2.051,1.512,4.087,3.2c2.4,1.984,4.781,4.139,7.1,6.458s4.474,4.7,6.459,7.1Q982.895,2013.26,982.515,2010.736Z" fill="#36b0c9"/>
      <path id="Path_13" data-name="Path 13" d="M949.258,2051.411a92.726,92.726,0,0,0,7.932,5.8c.929-.528,1.861-1.079,2.8-1.663-1.82-1.137-3.649-2.391-5.473-3.736Q951.84,2051.679,949.258,2051.411Z" fill="#36b0c9"/>
    </g>
    <g id="Group_5" data-name="Group 5">
      <path id="Path_14" data-name="Path 14" d="M975.408,1988.273q-.746-1.344-1.542-2.558A63.193,63.193,0,0,0,960,1991.993c.931.554,1.865,1.125,2.8,1.734A58.483,58.483,0,0,1,975.408,1988.273Z" fill="#80bc00"/>
      <path id="Path_15" data-name="Path 15" d="M960,1995.387c-.937-.585-1.87-1.132-2.8-1.66a92.672,92.672,0,0,0-7.944,5.807q2.574-.264,5.244-.4Q957.25,1997.1,960,1995.387Z" fill="#80bc00"/>
      <path id="Path_16" data-name="Path 16" d="M996.822,1988.661h0l-.008-.007,0,0h0c-4.549-4.539-11.7-5.62-20.02-3.717.523.834,1.027,1.712,1.515,2.622,6.937-1.43,12.8-.521,16.467,3.135s4.559,9.531,3.129,16.468c-.2.952-.431,1.921-.714,2.91a58.533,58.533,0,0,1-5.455,12.626c-.527.927-1.073,1.858-1.657,2.792-1.137,1.82-2.39,3.648-3.736,5.473q-.137,2.673-.4,5.256a92.612,92.612,0,0,0,5.8-7.933c.611-.938,1.184-1.875,1.74-2.809a63.332,63.332,0,0,0,6.272-13.852c.3-.994.551-1.97.772-2.934C1002.43,2000.366,1001.361,1993.21,996.822,1988.661Z" fill="#80bc00"/>
      <path id="Path_17" data-name="Path 17" d="M933.66,2019.984q1.527-2.071,3.227-4.128c1.978-2.392,4.116-4.76,6.426-7.07s4.7-4.473,7.1-6.458c-1.751.167-3.471.376-5.15.63q-2.013,1.816-3.988,3.79-1.95,1.95-3.747,3.94t-3.461,4.036a93.023,93.023,0,0,0-5.814,7.949c.528.93,1.076,1.864,1.661,2.8C931.054,2023.648,932.312,2021.814,933.66,2019.984Z" fill="#80bc00"/>
      <path id="Path_18" data-name="Path 18" d="M928.253,2028.274c-.608-.936-1.18-1.869-1.734-2.8a63.257,63.257,0,0,0-6.271,13.851c.812.534,1.663,1.053,2.563,1.552A58.528,58.528,0,0,1,928.253,2028.274Z" fill="#80bc00"/>
      <path id="Path_19" data-name="Path 19" d="M969.587,2048.618q-2.034,1.68-4.087,3.2c-1.838,1.355-3.679,2.593-5.513,3.737-.936.584-1.868,1.135-2.8,1.663a58.594,58.594,0,0,1-12.6,5.441c-.989.284-1.958.519-2.909.715-6.931,1.432-12.795.54-16.457-3.114s-4.559-9.531-3.129-16.469c-.915-.49-1.783-1-2.621-1.528-1.906,8.321-.837,15.477,3.7,20.025v0l.011.009h0c4.549,4.539,11.705,5.608,20.027,3.7.964-.221,1.94-.472,2.934-.773A63.287,63.287,0,0,0,960,2058.954c.924-.55,1.851-1.144,2.779-1.746a92.173,92.173,0,0,0,7.965-5.8q2.008-1.632,3.993-3.423,2.013-1.817,3.988-3.79t3.79-3.99c.254-1.682.464-3.405.63-5.159-1.986,2.406-4.136,4.788-6.459,7.11S971.989,2046.633,969.587,2048.618Z" fill="#80bc00"/>
    </g>
    <g id="Group_6" data-name="Group 6">
      <path id="Path_20" data-name="Path 20" d="M970.743,1999.534q2.008,1.633,3.993,3.424c2.253.34,4.437.756,6.537,1.241-.248-1.076-.521-2.123-.8-3.155A92.886,92.886,0,0,0,970.743,1999.534Z" fill="#863399"/>
      <path id="Path_21" data-name="Path 21" d="M997.189,2010.068c.283-.989.518-1.958.714-2.91a63.3,63.3,0,0,0-14.229-5.36c.267,1.051.523,2.115.754,3.207A58.565,58.565,0,0,1,997.189,2010.068Z" fill="#863399"/>
      <path id="Path_22" data-name="Path 22" d="M970.744,2051.411a92.042,92.042,0,0,0,9.72-1.533c.282-1.023.549-2.065.8-3.133q-3.145.727-6.523,1.243Q972.754,2049.777,970.744,2051.411Z" fill="#863399"/>
      <path id="Path_23" data-name="Path 23" d="M1000.524,2008.687c-.221.964-.472,1.94-.772,2.934,5.912,3.892,9.427,8.673,9.433,13.848s-3.51,9.977-9.434,13.875c-.8.53-1.657,1.042-2.549,1.537a58.653,58.653,0,0,1-12.782,5.061c-.229,1.081-.473,2.146-.737,3.186a63.372,63.372,0,0,0,14.229-5.345c.911-.488,1.79-.992,2.624-1.515,7.231-4.539,11.525-10.36,11.531-16.787h0C1012.069,2019.048,1007.762,2013.227,1000.524,2008.687Z" fill="#863399"/>
      <path id="Path_24" data-name="Path 24" d="M935.582,2005q1.544-.426,3.153-.8,3.147-.729,6.528-1.244c1.679-.254,3.4-.463,5.15-.63,3.1-.3,6.307-.454,9.587-.454s6.484.158,9.586.454q-2.034-1.681-4.087-3.2-2.706-.138-5.5-.141t-5.5.141q-2.668.137-5.244.4a92.462,92.462,0,0,0-9.725,1.534q-1.637.348-3.211.748a63.389,63.389,0,0,0-14.239,5.347c.2.947.436,1.916.718,2.9A58.648,58.648,0,0,1,935.582,2005Z" fill="#863399"/>
      <path id="Path_25" data-name="Path 25" d="M950.423,2048.619q-2.632-.25-5.159-.631c-2.253-.34-4.437-.756-6.538-1.242-1.076-.248-2.123-.521-3.154-.8a58.5,58.5,0,0,1-12.761-5.064c-.9-.5-1.751-1.018-2.563-1.552-5.912-3.892-9.427-8.673-9.432-13.848s3.511-9.968,9.428-13.864c-.3-.991-.565-1.97-.785-2.932-7.228,4.538-11.519,10.359-11.526,16.784h0c0,6.433,4.307,12.253,11.545,16.794.838.526,1.706,1.038,2.621,1.528a63.23,63.23,0,0,0,14.229,5.36c1.05.267,2.114.523,3.206.754a92.618,92.618,0,0,0,9.726,1.51q2.58.267,5.256.4,2.7.137,5.486.14t5.5-.141q2.051-1.514,4.087-3.2c-3.1.3-6.306.453-9.587.453S953.522,2048.914,950.423,2048.619Z" fill="#863399"/>
    </g>
  </g>
</svg>
