<svg xmlns="http://www.w3.org/2000/svg" width="91.131" height="62.6" viewBox="0 0 91.131 62.6">
  <g id="Group_32" data-name="Group 32" transform="translate(-1147.869 -984.974)">
    <path id="Path_108" data-name="Path 108" d="M1237.437,1047.509a6.487,6.487,0,0,1-5.063-2.829,1.563,1.563,0,1,1,2.443-1.951,3.536,3.536,0,0,0,2.62,1.653,1.564,1.564,0,0,1,0,3.127Zm-53.8-.2a1.564,1.564,0,0,1-.511-3.042,5.486,5.486,0,0,0,2.5-2.459,1.564,1.564,0,1,1,2.657,1.649,8.273,8.273,0,0,1-4.132,3.766A1.582,1.582,0,0,1,1183.634,1047.306Zm47.632-6.1a1.56,1.56,0,0,1-1.43-.931c-.577-1.3-1.137-2.786-1.713-4.539a1.563,1.563,0,1,1,2.97-.977c.544,1.653,1.068,3.044,1.6,4.252a1.561,1.561,0,0,1-.8,2.061A1.54,1.54,0,0,1,1231.266,1041.209Zm-42.3-1.247a1.564,1.564,0,0,1-1.46-2.124c.485-1.259.959-2.679,1.45-4.34a1.563,1.563,0,1,1,3,.885c-.514,1.742-1.015,3.238-1.529,4.576A1.565,1.565,0,0,1,1188.97,1039.962Zm39.292-7.654a1.565,1.565,0,0,1-1.507-1.149c-.4-1.474-.8-3.01-1.191-4.59a1.563,1.563,0,0,1,3.035-.751c.385,1.553.773,3.064,1.172,4.513a1.563,1.563,0,0,1-1.509,1.977Zm-36.568-1.339a1.582,1.582,0,0,1-.384-.047,1.563,1.563,0,0,1-1.133-1.9c.37-1.468.733-2.989,1.093-4.543a1.563,1.563,0,1,1,3.046.705c-.365,1.576-.733,3.115-1.107,4.6A1.563,1.563,0,0,1,1191.694,1030.969Zm34.286-7.783a1.564,1.564,0,0,1-1.52-1.2l-1.073-4.581a1.564,1.564,0,0,1,3.045-.712l1.071,4.576a1.564,1.564,0,0,1-1.163,1.881A1.651,1.651,0,0,1,1225.98,1023.186Zm-32.145-1.379a1.539,1.539,0,0,1-.342-.038,1.563,1.563,0,0,1-1.186-1.866l1.028-4.591a1.563,1.563,0,0,1,3.05.688l-1.026,4.584A1.562,1.562,0,0,1,1193.835,1021.807Zm29.983-7.779a1.564,1.564,0,0,1-1.518-1.193c-.372-1.53-.752-3.045-1.143-4.532a1.563,1.563,0,0,1,3.024-.794c.4,1.5.78,3.038,1.158,4.587a1.564,1.564,0,0,1-1.149,1.888A1.536,1.536,0,0,1,1223.818,1014.028Zm-27.9-1.389a1.564,1.564,0,0,1-1.522-1.925c.371-1.559.751-3.1,1.145-4.6a1.564,1.564,0,0,1,3.025.794c-.388,1.48-.762,2.994-1.128,4.529A1.563,1.563,0,0,1,1195.919,1012.639Zm25.484-7.7a1.564,1.564,0,0,1-1.5-1.116c-.476-1.6-.956-3.072-1.428-4.389a1.563,1.563,0,1,1,2.944-1.054c.5,1.388.981,2.877,1.481,4.548a1.565,1.565,0,0,1-1.052,1.946A1.581,1.581,0,0,1,1221.4,1004.941Zm-23.074-1.391a1.561,1.561,0,0,1-1.5-2.018c.513-1.686,1.013-3.173,1.529-4.55a1.564,1.564,0,0,1,2.929,1.1c-.493,1.313-.973,2.741-1.467,4.361A1.562,1.562,0,0,1,1198.329,1003.55Zm19.854-7.43a1.562,1.562,0,0,1-1.417-.9,23.933,23.933,0,0,0-2.176-3.82,1.563,1.563,0,0,1,2.538-1.826,26.75,26.75,0,0,1,2.47,4.321,1.563,1.563,0,0,1-1.415,2.226Zm-16.484-1.33a1.544,1.544,0,0,1-.712-.173,1.562,1.562,0,0,1-.677-2.1,21.011,21.011,0,0,1,2.775-4.229,1.564,1.564,0,0,1,2.353,2.061,17.867,17.867,0,0,0-2.347,3.6A1.563,1.563,0,0,1,1201.7,994.79Zm10.8-5.923a1.551,1.551,0,0,1-.751-.192,4.356,4.356,0,0,0-3.295-.426,1.563,1.563,0,1,1-.82-3.017,7.534,7.534,0,0,1,5.619.7,1.563,1.563,0,0,1-.753,2.934Z" fill="#36b0c9"/>
    <path id="Path_109" data-name="Path 109" d="M1226.493,1047.574a7.267,7.267,0,0,1-5.2-2.346,1.563,1.563,0,0,1,2.2-2.217,4.22,4.22,0,0,0,2.991,1.437,1.563,1.563,0,0,1,0,3.126Zm-53.547-.221a1.564,1.564,0,0,1-.469-3.055,5.909,5.909,0,0,0,2.777-2.3,1.564,1.564,0,1,1,2.519,1.853,8.778,8.778,0,0,1-4.356,3.432A1.572,1.572,0,0,1,1172.946,1047.353Zm46.77-5.495a1.565,1.565,0,0,1-1.381-.827,43.037,43.037,0,0,1-2.008-4.44,1.563,1.563,0,1,1,2.908-1.148,39.851,39.851,0,0,0,1.859,4.116,1.562,1.562,0,0,1-1.378,2.3ZM1178.8,1040.4a1.561,1.561,0,0,1-1.424-2.2c.544-1.208,1.09-2.6,1.67-4.249a1.564,1.564,0,0,1,2.95,1.038c-.61,1.734-1.189,3.2-1.77,4.493A1.56,1.56,0,0,1,1178.8,1040.4Zm37.381-7.24a1.563,1.563,0,0,1-1.482-1.064c-.491-1.458-.975-2.966-1.462-4.495a1.564,1.564,0,1,1,2.981-.946c.48,1.51.958,3,1.445,4.443a1.563,1.563,0,0,1-1.482,2.062Zm-34.192-1.594a1.607,1.607,0,0,1-.466-.07,1.565,1.565,0,0,1-1.027-1.959c.391-1.255.779-2.537,1.17-3.83l.2-.654a1.563,1.563,0,1,1,2.992.907l-.2.652c-.393,1.3-.784,2.592-1.178,3.857A1.565,1.565,0,0,1,1181.993,1031.566Zm31.311-7.351a1.563,1.563,0,0,1-1.487-1.082c-.483-1.489-.976-2.968-1.488-4.413a1.563,1.563,0,1,1,2.947-1.044c.521,1.469,1.023,2.976,1.515,4.495a1.562,1.562,0,0,1-1.487,2.044Zm-28.553-1.635a1.561,1.561,0,0,1-1.49-2.038c.489-1.533.992-3.046,1.52-4.509a1.564,1.564,0,0,1,2.941,1.063c-.515,1.426-1.006,2.9-1.482,4.4A1.565,1.565,0,0,1,1184.751,1022.58Zm25.367-7.2a1.563,1.563,0,0,1-1.442-.958,41.979,41.979,0,0,0-1.956-4.081,1.563,1.563,0,0,1,2.734-1.517,44.816,44.816,0,0,1,2.1,4.386,1.563,1.563,0,0,1-1.439,2.17Zm-22.126-1.611a1.563,1.563,0,0,1-1.426-2.2,34.89,34.89,0,0,1,2.283-4.347,1.563,1.563,0,1,1,2.647,1.664,32.12,32.12,0,0,0-2.077,3.962A1.562,1.562,0,0,1,1187.992,1013.766Zm17.452-6.484a1.558,1.558,0,0,1-1.176-.533,9.19,9.19,0,0,0-3.12-2.425,1.563,1.563,0,1,1,1.258-2.861,12.216,12.216,0,0,1,4.213,3.225,1.564,1.564,0,0,1-1.175,2.594Zm-12.309-1.28a1.563,1.563,0,0,1-1.031-2.739,10.075,10.075,0,0,1,4.848-2.439,1.562,1.562,0,1,1,.561,3.074,6.924,6.924,0,0,0-3.348,1.717A1.561,1.561,0,0,1,1193.135,1006Z" fill="#36b0c9"/>
    <path id="Path_110" data-name="Path 110" d="M1215.549,1047.574a9.085,9.085,0,0,1-5.257-1.676,1.564,1.564,0,0,1,1.781-2.571,5.93,5.93,0,0,0,3.476,1.121,1.563,1.563,0,1,1,0,3.126Zm-51.487-.911a1.563,1.563,0,0,1-.763-2.928,9.7,9.7,0,0,0,2.919-2.735,1.564,1.564,0,0,1,2.5,1.881,12.669,12.669,0,0,1-3.9,3.583A1.55,1.55,0,0,1,1164.062,1046.663Zm43.884-3.838a1.558,1.558,0,0,1-1.271-.652,37.4,37.4,0,0,1-2.545-4.185,1.564,1.564,0,0,1,2.758-1.475,34.171,34.171,0,0,0,2.327,3.837,1.563,1.563,0,0,1-1.269,2.475Zm-38.02-3.313a1.564,1.564,0,0,1-1.382-2.292c.7-1.319,1.364-2.725,2.039-4.156a1.563,1.563,0,0,1,2.827,1.335c-.664,1.409-1.373,2.9-2.1,4.277A1.563,1.563,0,0,1,1169.926,1039.512Zm33.462-4.888a1.564,1.564,0,0,1-1.4-.871c-.682-1.385-1.374-2.784-2.1-4.141a1.564,1.564,0,0,1,2.756-1.478c.744,1.388,1.451,2.82,2.15,4.235a1.563,1.563,0,0,1-1.4,2.255Zm-29.36-3.565a1.563,1.563,0,0,1-1.395-2.265c.844-1.681,1.592-3.026,2.355-4.235a1.563,1.563,0,1,1,2.645,1.667c-.708,1.122-1.409,2.383-2.206,3.972A1.566,1.566,0,0,1,1174.028,1031.059Zm24.831-4.656a1.557,1.557,0,0,1-1.293-.683,20.124,20.124,0,0,0-2.777-3.337,1.563,1.563,0,1,1,2.145-2.275,23.08,23.08,0,0,1,3.215,3.851,1.564,1.564,0,0,1-1.29,2.444Zm-19.7-3.162a1.563,1.563,0,0,1-1.124-2.649,14.312,14.312,0,0,1,4.2-3.089,1.564,1.564,0,0,1,1.338,2.828,11.235,11.235,0,0,0-3.288,2.432A1.558,1.558,0,0,1,1179.16,1023.241Zm12.82-2.991a1.553,1.553,0,0,1-.59-.116,9.6,9.6,0,0,0-3.7-.7l-.255,0a1.538,1.538,0,0,1-1.59-1.537,1.565,1.565,0,0,1,1.538-1.59l.307,0a12.824,12.824,0,0,1,4.875.933,1.563,1.563,0,0,1-.59,3.011Z" fill="#36b0c9"/>
    <path id="Path_111" data-name="Path 111" d="M1203.042,1047.574a16.034,16.034,0,0,1-5.093-.775,1.564,1.564,0,0,1,.978-2.971,12.949,12.949,0,0,0,4.115.62,1.563,1.563,0,0,1,0,3.126Zm-53.612-.058a1.563,1.563,0,0,1-.132-3.12,11.243,11.243,0,0,0,3.954-1.051,1.563,1.563,0,1,1,1.346,2.822,14.279,14.279,0,0,1-5.032,1.343A1.248,1.248,0,0,1,1149.43,1047.516Zm44.88-2.81a1.557,1.557,0,0,1-.918-.3,44.037,44.037,0,0,1-3.5-2.934l-.208-.188a1.563,1.563,0,1,1,2.09-2.324l.21.188a40.75,40.75,0,0,0,3.247,2.73,1.564,1.564,0,0,1-.922,2.828Zm-36.532-1.023a1.564,1.564,0,0,1-1.028-2.742c.637-.555,1.256-1.139,1.882-1.73.506-.478,1.016-.959,1.543-1.434a1.564,1.564,0,0,1,2.093,2.324c-.509.458-1,.924-1.49,1.383-.656.62-1.306,1.232-1.974,1.814A1.557,1.557,0,0,1,1157.778,1043.683Zm29.345-4.988a1.556,1.556,0,0,1-.907-.292,17.517,17.517,0,0,0-3.756-2.073,1.563,1.563,0,0,1,1.151-2.907,20.527,20.527,0,0,1,4.422,2.437,1.563,1.563,0,0,1-.91,2.835Zm-22.178-1.028a1.564,1.564,0,0,1-.81-2.9,18.549,18.549,0,0,1,4.672-2.015,1.563,1.563,0,1,1,.84,3.01,15.451,15.451,0,0,0-3.9,1.683A1.55,1.55,0,0,1,1164.945,1037.667Zm13.569-2.388a1.662,1.662,0,0,1-.21-.013,24.793,24.793,0,0,0-4.381-.167,1.542,1.542,0,0,1-1.643-1.479,1.563,1.563,0,0,1,1.479-1.644,27.763,27.763,0,0,1,4.961.19,1.563,1.563,0,0,1-.206,3.113Z" fill="#36b0c9"/>
    <path id="Path_112" data-name="Path 112" d="M1173.644,989a4.476,4.476,0,0,0-4.083,2.088l-.445.724-.445-.724a4.476,4.476,0,0,0-4.083-2.088,5.787,5.787,0,0,0-5.652,5.983c-.02,5.714,5.98,9.8,10.161,12.469,4.246-2.67,10.219-6.755,10.2-12.469A5.786,5.786,0,0,0,1173.644,989Z" fill="#e1251b"/>
  </g>
</svg>
