<svg xmlns="http://www.w3.org/2000/svg" width="130" height="51.674" viewBox="0 0 130 51.674">
  <g id="Group_18" data-name="Group 18" transform="translate(-896 -2464.788)">
    <path id="user-29" d="M896.009,2516.462H915.39c-.092-21.127,9.672-11.939,9.672-28.747,0-6.489-4.234-10.008-9.68-10.008-8.049,0-13.646,7.7-6.026,22.085,2.5,4.731-2.666,5.854-8.221,7.136-4.815,1.111-5.135,3.466-5.135,7.54C896,2515.091,896.009,2515.755,896.009,2516.462Z" fill="#f18a00"/>
    <path id="user-29-2" data-name="user-29" d="M1000.163,2514.267c0-4.075-.319-6.43-5.134-7.54-5.555-1.283-10.723-2.406-8.221-7.137,7.62-14.39,2.023-22.085-6.026-22.085-5.446,0-9.681,3.52-9.681,10.008,0,16.808,9.765,7.62,9.672,28.747h19.382C1000.155,2515.553,1000.163,2514.889,1000.163,2514.267Z" fill="#863399"/>
    <path id="user-29-3" data-name="user-29" d="M1026,2514.267c0-4.075-.319-6.43-5.134-7.54-5.555-1.283-10.723-2.406-8.222-7.137,7.62-14.39,2.023-22.085-6.026-22.085-5.445,0-9.68,3.52-9.68,10.008,0,16.808,9.765,7.62,9.672,28.747h19.382C1025.992,2515.553,1026,2514.889,1026,2514.267Z" fill="#36b0c9"/>
    <path id="user-29-4" data-name="user-29" d="M973.5,2516.462H921.846c0-.951-.009-1.842-.009-2.683,0-5.417.429-8.549,6.838-10.029,7.25-1.674,14.4-3.167,10.958-9.513-10.189-18.793-2.9-29.449,8.037-29.449,10.727,0,18.2,10.261,8.036,29.449-3.339,6.3,3.557,7.8,10.959,9.513,6.417,1.484,6.841,4.617,6.841,10.046C973.506,2514.628,973.5,2515.52,973.5,2516.462Z" fill="#80bc00"/>
  </g>
</svg>
