<svg xmlns="http://www.w3.org/2000/svg" width="94.643" height="94.644" viewBox="0 0 94.643 94.644">
  <g id="Group_37" data-name="Group 37" transform="translate(-681 -966.151)">
    <path id="Path_113" data-name="Path 113" d="M733.471,1003.226a5.009,5.009,0,0,0-4.572,2.339l-.5.811-.5-.811a5.014,5.014,0,0,0-4.573-2.339,6.48,6.48,0,0,0-6.33,6.7c-.023,6.4,6.7,10.975,11.38,13.965,4.755-2.99,11.444-7.565,11.421-13.965A6.479,6.479,0,0,0,733.471,1003.226Z" fill="#e1251b"/>
    <g id="Group_33" data-name="Group 33">
      <path id="Path_114" data-name="Path 114" d="M709.719,1035.674c-.992-.211-1.958-.443-2.913-.685a57.524,57.524,0,0,0,4.868,12.926c.865-.179,1.745-.392,2.644-.65A53.2,53.2,0,0,1,709.719,1035.674Z" fill="#f18a00"/>
      <path id="Path_115" data-name="Path 115" d="M752.261,1008.475q-.125-2.426-.366-4.767a84.423,84.423,0,0,0-1.373-8.837c-.21-.992-.443-1.959-.685-2.914a57.441,57.441,0,0,0-4.877-12.945c-.444-.827-.9-1.625-1.378-2.383-4.124-6.569-9.414-10.47-15.254-10.476v0c-5.849,0-11.147,3.908-15.276,10.49.876.2,1.763.428,2.666.7,3.54-5.379,7.894-8.565,12.6-8.57s9.065,3.188,12.607,8.568c.483.734.949,1.511,1.4,2.324a53.2,53.2,0,0,1,4.6,11.608c.259.937.506,1.889.732,2.866.442,1.91.819,3.9,1.129,5.942.23,1.526.421,3.089.572,4.68.269,2.82.412,5.731.412,8.713s-.143,5.887-.411,8.7c-.152,1.594-.343,3.16-.573,4.688-.31,2.052-.7,4.029-1.141,5.942q-.336,1.455-.723,2.847a53.3,53.3,0,0,1-4.606,11.616c-.453.818-.925,1.592-1.41,2.329-3.534,5.373-7.875,8.569-12.576,8.575h0c-4.706,0-9.055-3.195-12.6-8.572-.9.273-1.79.5-2.666.7,4.123,6.572,9.408,10.484,15.248,10.489v0c5.847,0,11.138-3.914,15.265-10.492.478-.762.944-1.551,1.389-2.382a57.434,57.434,0,0,0,4.876-12.95c.24-.945.462-1.913.67-2.895a84.136,84.136,0,0,0,1.38-8.841q.242-2.344.366-4.776.126-2.455.127-4.986T752.261,1008.475Z" fill="#f18a00"/>
      <path id="Path_116" data-name="Path 116" d="M708.995,994.141q-1.464.339-2.865.728a84.664,84.664,0,0,0-1.377,8.835q1.5-1.844,3.146-3.668C708.207,998.013,708.558,996.03,708.995,994.141Z" fill="#f18a00"/>
      <path id="Path_117" data-name="Path 117" d="M714.313,979.672c-.9-.257-1.775-.469-2.637-.647a57.565,57.565,0,0,0-4.875,12.948q1.431-.365,2.918-.68A53.407,53.407,0,0,1,714.313,979.672Z" fill="#f18a00"/>
      <path id="Path_118" data-name="Path 118" d="M706.874,1013.473c0-3,.169-5.907.442-8.74q-1.543,1.868-2.933,3.752-.126,2.456-.129,4.988t.127,4.986q1.375,1.865,2.905,3.717C707.018,1019.36,706.874,1016.451,706.874,1013.473Z" fill="#f18a00"/>
      <path id="Path_119" data-name="Path 119" d="M707.859,1026.864q-1.628-1.8-3.112-3.629a84.175,84.175,0,0,0,1.374,8.84c.936.258,1.888.506,2.866.732C708.546,1030.9,708.168,1028.912,707.859,1026.864Z" fill="#f18a00"/>
    </g>
    <g id="Group_34" data-name="Group 34">
      <path id="Path_120" data-name="Path 120" d="M755.657,1013.484c.53-.848,1.027-1.694,1.505-2.537a84.1,84.1,0,0,0-5.267-7.239q.24,2.341.366,4.767C753.492,1010.145,754.617,1011.818,755.657,1013.484Z" fill="#f18a00"/>
      <path id="Path_121" data-name="Path 121" d="M764.448,1026.079a57.324,57.324,0,0,0-5.7-12.606c-.505.849-1.026,1.7-1.581,2.553a53.277,53.277,0,0,1,4.963,11.45Q763.348,1026.8,764.448,1026.079Z" fill="#f18a00"/>
      <path id="Path_122" data-name="Path 122" d="M765.162,1028.736c-.758.476-1.557.934-2.385,1.378,1.3,6.3.478,11.632-2.843,14.962s-8.661,4.143-14.965,2.845c-.445.831-.911,1.62-1.389,2.382,7.561,1.73,14.062.759,18.2-3.366l0,0,.008-.01h0C765.911,1042.8,766.89,1036.3,765.162,1028.736Z" fill="#f18a00"/>
      <path id="Path_123" data-name="Path 123" d="M728.322,1043.9a57.473,57.473,0,0,0,12.582,5.7c.485-.737.957-1.511,1.41-2.329a53.236,53.236,0,0,1-11.467-4.955C730,1042.862,729.162,1043.4,728.322,1043.9Z" fill="#f18a00"/>
      <path id="Path_124" data-name="Path 124" d="M748.784,1000.08q-1.653-1.83-3.445-3.625t-3.625-3.444q-1.8-1.627-3.629-3.112a84.34,84.34,0,0,0-7.219-5.278c-.85-.553-1.7-1.072-2.545-1.576a57.5,57.5,0,0,0-12.6-5.7c-.9-.273-1.79-.5-2.666-.7-7.557-1.728-14.054-.756-18.186,3.367h0l-.007.007,0,0h0c-4.125,4.134-5.108,10.633-3.379,18.195.2.874.441,1.764.713,2.665a57.457,57.457,0,0,0,5.7,12.6c.5.846,1.023,1.694,1.576,2.544a84.351,84.351,0,0,0,5.278,7.217q1.485,1.826,3.112,3.629,1.652,1.831,3.444,3.627t3.626,3.444q2.293.346,4.688.573c-2.186-1.805-4.35-3.759-6.461-5.87s-4.065-4.275-5.87-6.462q-1.528-1.85-2.905-3.717c-1.225-1.662-2.367-3.328-3.4-4.986-.532-.851-1.03-1.7-1.51-2.544a53.206,53.206,0,0,1-4.957-11.461q-.384-1.343-.652-2.635c-1.3-6.3-.473-11.636,2.851-14.966s8.661-4.141,14.965-2.842c.862.178,1.741.39,2.637.647a53.148,53.148,0,0,1,11.463,4.949c.846.48,1.694.978,2.545,1.509q2.493,1.557,5,3.4,1.863,1.375,3.714,2.9c2.183,1.8,4.344,3.761,6.452,5.87s4.066,4.268,5.87,6.452C749.205,1003.169,749.014,1001.606,748.784,1000.08Z" fill="#f18a00"/>
      <path id="Path_125" data-name="Path 125" d="M718.559,1037.046a84.36,84.36,0,0,0,7.209,5.274c.844-.48,1.692-.98,2.542-1.512-1.654-1.033-3.316-2.173-4.974-3.4Q720.906,1037.288,718.559,1037.046Z" fill="#f18a00"/>
    </g>
    <g id="Group_35" data-name="Group 35">
      <path id="Path_126" data-name="Path 126" d="M742.325,979.664c-.452-.813-.918-1.59-1.4-2.324a57.461,57.461,0,0,0-12.6,5.7c.847.5,1.7,1.023,2.545,1.576A53.226,53.226,0,0,1,742.325,979.664Z" fill="#f18a00"/>
      <path id="Path_127" data-name="Path 127" d="M728.321,986.13c-.851-.531-1.7-1.029-2.545-1.509a84.494,84.494,0,0,0-7.219,5.278q2.34-.24,4.766-.366Q725.822,987.691,728.321,986.13Z" fill="#f18a00"/>
      <path id="Path_128" data-name="Path 128" d="M761.786,980.018h0l-.007-.007,0,0h0c-4.134-4.126-10.633-5.108-18.2-3.379.476.758.934,1.556,1.378,2.383,6.3-1.3,11.634-.474,14.965,2.849s4.143,8.662,2.844,14.967c-.178.865-.392,1.746-.649,2.645a53.2,53.2,0,0,1-4.958,11.474c-.478.843-.975,1.689-1.505,2.537-1.034,1.655-2.173,3.316-3.4,4.975q-.123,2.43-.366,4.776a84.345,84.345,0,0,0,5.273-7.209c.555-.853,1.076-1.7,1.581-2.553a57.533,57.533,0,0,0,5.7-12.589c.273-.9.5-1.79.7-2.667C766.883,990.655,765.912,984.152,761.786,980.018Z" fill="#f18a00"/>
      <path id="Path_129" data-name="Path 129" d="M704.383,1008.485q1.389-1.883,2.933-3.752c1.8-2.174,3.741-4.326,5.84-6.425s4.269-4.066,6.453-5.87q-2.388.228-4.681.573-1.828,1.65-3.625,3.444-1.771,1.771-3.4,3.581t-3.146,3.668a84.331,84.331,0,0,0-5.284,7.225c.48.845.978,1.693,1.51,2.544C702.014,1011.814,703.158,1010.148,704.383,1008.485Z" fill="#f18a00"/>
      <path id="Path_130" data-name="Path 130" d="M699.469,1016.018c-.553-.85-1.072-1.7-1.576-2.544a57.523,57.523,0,0,0-5.7,12.588c.738.485,1.511.957,2.329,1.411A53.247,53.247,0,0,1,699.469,1016.018Z" fill="#f18a00"/>
      <path id="Path_131" data-name="Path 131" d="M737.035,1034.508q-1.849,1.527-3.715,2.9c-1.67,1.232-3.344,2.357-5.01,3.4-.85.532-1.7,1.032-2.542,1.512a53.234,53.234,0,0,1-11.45,4.945c-.9.258-1.779.471-2.644.65-6.3,1.3-11.628.49-14.956-2.83s-4.143-8.663-2.844-14.968c-.831-.445-1.62-.911-2.382-1.389-1.732,7.563-.761,14.066,3.365,18.2v0l.01.008h0c4.135,4.125,10.638,5.1,18.2,3.364.876-.2,1.763-.429,2.666-.7a57.465,57.465,0,0,0,12.589-5.7c.84-.5,1.682-1.039,2.525-1.587a83.584,83.584,0,0,0,7.239-5.268q1.825-1.484,3.629-3.111,1.828-1.652,3.625-3.444t3.444-3.627c.23-1.528.421-3.094.573-4.688-1.806,2.186-3.759,4.351-5.87,6.462S739.218,1032.7,737.035,1034.508Z" fill="#f18a00"/>
    </g>
    <g id="Group_36" data-name="Group 36">
      <path id="Path_132" data-name="Path 132" d="M738.085,989.9q1.825,1.485,3.629,3.112c2.047.309,4.032.686,5.941,1.127-.226-.977-.473-1.929-.732-2.866A84.115,84.115,0,0,0,738.085,989.9Z" fill="#f18a00"/>
      <path id="Path_133" data-name="Path 133" d="M762.12,999.473c.257-.9.471-1.78.649-2.645a57.5,57.5,0,0,0-12.932-4.871c.242.955.475,1.922.685,2.914A53.171,53.171,0,0,1,762.12,999.473Z" fill="#f18a00"/>
      <path id="Path_134" data-name="Path 134" d="M738.086,1037.046a83.643,83.643,0,0,0,8.834-1.393q.384-1.395.723-2.847-2.858.661-5.928,1.129Q739.912,1035.563,738.086,1037.046Z" fill="#f18a00"/>
      <path id="Path_135" data-name="Path 135" d="M765.151,998.217c-.2.877-.429,1.764-.7,2.667,5.374,3.537,8.568,7.882,8.573,12.585s-3.189,9.068-8.574,12.61q-1.1.723-2.317,1.4a53.334,53.334,0,0,1-11.616,4.6c-.208.982-.43,1.95-.67,2.895a57.591,57.591,0,0,0,12.932-4.857c.828-.444,1.627-.9,2.385-1.378,6.571-4.125,10.474-9.415,10.48-15.256h0C775.643,1007.634,771.729,1002.343,765.151,998.217Z" fill="#f18a00"/>
      <path id="Path_136" data-name="Path 136" d="M706.13,994.869q1.4-.387,2.865-.728,2.86-.661,5.933-1.13,2.289-.346,4.681-.573c2.819-.268,5.731-.412,8.713-.412s5.892.144,8.712.412q-1.849-1.527-3.714-2.9-2.461-.125-5-.128t-5,.128q-2.424.125-4.766.366a84.015,84.015,0,0,0-8.838,1.394q-1.488.316-2.918.68a57.637,57.637,0,0,0-12.941,4.86q.266,1.29.652,2.635A53.371,53.371,0,0,1,706.13,994.869Z" fill="#f18a00"/>
      <path id="Path_137" data-name="Path 137" d="M719.617,1034.508q-2.391-.227-4.688-.573c-2.047-.309-4.032-.686-5.942-1.128-.978-.226-1.93-.474-2.866-.732a53.218,53.218,0,0,1-11.6-4.6c-.818-.454-1.591-.926-2.329-1.411-5.373-3.537-8.567-7.882-8.572-12.585s3.191-9.06,8.568-12.6c-.272-.9-.513-1.791-.713-2.665-6.569,4.124-10.469,9.414-10.475,15.254h0c0,5.846,3.914,11.136,10.492,15.262.762.478,1.551.944,2.382,1.389a57.536,57.536,0,0,0,12.932,4.872c.955.242,1.921.474,2.913.685a84.212,84.212,0,0,0,8.84,1.372q2.344.242,4.777.367,2.454.125,4.986.127t5-.128q1.863-1.374,3.715-2.9c-2.82.268-5.732.412-8.713.412S722.434,1034.776,719.617,1034.508Z" fill="#f18a00"/>
    </g>
  </g>
</svg>
