<svg id="Layer_1" data-name="Layer 1" xmlns="http://www.w3.org/2000/svg" viewBox="0 0 360 81.5"><defs><style>.cls-1{fill:#fff;}</style></defs><path class="cls-1" d="M44.44,32.2a4.08,4.08,0,0,0-3.7,1.9l-.4.65-.4-.65a4.08,4.08,0,0,0-3.7-1.9,5.25,5.25,0,0,0-5.12,5.42c0,5.18,5.42,8.88,9.2,11.3,3.85-2.42,9.26-6.12,9.24-11.3A5.25,5.25,0,0,0,44.44,32.2Z"/><path class="cls-1" d="M70.07,28.15c1.4-6.11.61-11.37-2.72-14.72h0c-3.35-3.33-8.6-4.13-14.72-2.73C49.29,5.38,45,2.22,40.28,2.22h0c-4.73,0-9,3.16-12.35,8.48-6.12-1.4-11.37-.61-14.71,2.72h0C9.87,16.78,9.08,22,10.47,28.15,5.16,31.49,2,35.76,2,40.49H2c0,4.73,3.17,9,8.49,12.34C9.09,59,9.87,64.21,13.21,67.55h0c3.34,3.34,8.6,4.13,14.72,2.72,3.33,5.32,7.61,8.48,12.33,8.49h0c4.73,0,9-3.16,12.35-8.49,6.12,1.4,11.37.62,14.72-2.72h0c3.33-3.34,4.12-8.6,2.73-14.71,5.31-3.34,8.47-7.62,8.47-12.34h0C78.55,35.77,75.39,31.49,70.07,28.15ZM65.84,14.92c2.69,2.7,3.35,7,2.3,12.11a46.53,46.53,0,0,0-10.46-3.94,46.44,46.44,0,0,0-3.94-10.47C58.84,11.57,63.15,12.24,65.84,14.92Zm-6.2,21.53c1,1.35,1.91,2.71,2.75,4q-1.26,2-2.75,4c.07-1.33.1-2.67.1-4S59.71,37.78,59.64,36.45Zm4,6.11a43,43,0,0,1,4,9.26,43.24,43.24,0,0,1-9.4,3.72,69.47,69.47,0,0,0,1.12-7.15A67.86,67.86,0,0,0,63.61,42.56Zm0-4.11a68.09,68.09,0,0,0-4.26-5.85,66.85,66.85,0,0,0-1.12-7.15,43,43,0,0,1,9.39,3.72A43.25,43.25,0,0,1,63.61,38.45ZM52.54,52.76c-1.7,1.71-3.45,3.29-5.21,4.75q-3.44.33-7,.33t-7-.33c-1.77-1.46-3.52-3-5.23-4.75s-3.29-3.46-4.75-5.23c-.21-2.27-.33-4.63-.33-7s.14-4.77.36-7.07c1.45-1.75,3-3.5,4.72-5.19s3.45-3.29,5.22-4.75c2.28-.22,4.64-.33,7.05-.33s4.76.11,7,.33c1.77,1.46,3.52,3,5.22,4.75s3.29,3.45,4.75,5.22q.33,3.42.33,7c0,2.41-.11,4.77-.33,7C55.83,49.3,54.25,51.05,52.54,52.76Zm4.29-1.43c-.25,1.65-.57,3.25-.92,4.8-1.55.36-3.15.66-4.8.91,1-.89,2-1.81,2.93-2.78S55.94,52.31,56.83,51.33ZM40.28,18.38q2,1.26,4,2.75c-1.33-.07-2.67-.1-4-.1s-2.72,0-4.05.1Q38.25,19.65,40.28,18.38Zm-7.9,3.05a67.25,67.25,0,0,0-7.15,1.12A43.24,43.24,0,0,1,29,13.15a43.19,43.19,0,0,1,9.27,4A66.06,66.06,0,0,0,32.38,21.43Zm-2.94,2.51c-1,.89-2,1.82-2.93,2.79s-1.87,1.92-2.75,2.89c.25-1.63.53-3.24.88-4.76C26.19,24.5,27.79,24.19,29.44,23.94Zm-8.23,8.65a70.47,70.47,0,0,0-4.27,5.85,43.19,43.19,0,0,1-4-9.27,43,43,0,0,1,9.4-3.72A67.05,67.05,0,0,0,21.21,32.59Zm-.3,11.94q-1.48-2-2.75-4c.84-1.34,1.76-2.69,2.75-4-.06,1.32-.1,2.67-.1,4S20.85,43.2,20.91,44.53Zm.3,3.86a66.88,66.88,0,0,0,1.11,7.15,42.86,42.86,0,0,1-9.38-3.72,43.12,43.12,0,0,1,4-9.27A68.14,68.14,0,0,0,21.21,48.39Zm2.52,2.94c.89,1,1.81,2,2.78,2.93s1.95,1.89,2.93,2.78c-1.65-.25-3.26-.55-4.8-.91C24.28,54.59,24,53,23.73,51.33Zm8.65,8.23a69.62,69.62,0,0,0,5.83,4.27,43.34,43.34,0,0,1-9.26,4,43.06,43.06,0,0,1-3.72-9.38A67.28,67.28,0,0,0,32.38,59.56Zm3.86.3c1.33.07,2.67.1,4,.1s2.71,0,4-.1q-2,1.48-4,2.74C38.93,61.77,37.59,60.85,36.24,59.86ZM51.11,23.94c1.66.25,3.26.56,4.81.91.35,1.55.66,3.15.91,4.81-.89-1-1.82-2-2.79-2.93S52.1,24.83,51.11,23.94Zm4.21-1.4a64.63,64.63,0,0,0-7.14-1.11,67.56,67.56,0,0,0-5.84-4.27,42.42,42.42,0,0,1,9.26-4A42.75,42.75,0,0,1,55.32,22.54Zm-15-18.2c3.81,0,7.34,2.57,10.2,6.93a46.44,46.44,0,0,0-10.19,4.61,46.51,46.51,0,0,0-10.2-4.61C33,6.92,36.47,4.34,40.27,4.34ZM14.71,14.93c2.69-2.69,7-3.35,12.1-2.3A46.62,46.62,0,0,0,22.87,23.1,47.11,47.11,0,0,0,12.4,27C11.35,21.93,12,17.62,14.71,14.93ZM4.12,40.5c0-3.81,2.58-7.33,6.93-10.2a46.24,46.24,0,0,0,4.61,10.19,47.4,47.4,0,0,0-4.61,10.19C6.71,47.82,4.12,44.3,4.12,40.5ZM14.71,66.06c-2.69-2.69-3.35-7-2.3-12.1A46.53,46.53,0,0,0,22.87,57.9a46.44,46.44,0,0,0,3.94,10.45C21.72,69.41,17.41,68.75,14.71,66.06ZM40.28,76.65h0c-3.8,0-7.32-2.58-10.19-6.93a46.92,46.92,0,0,0,10.19-4.61,46.58,46.58,0,0,0,10.18,4.6C47.6,74.06,44.08,76.65,40.28,76.65ZM51.6,67.83a43,43,0,0,1-9.28-4,69.8,69.8,0,0,0,5.86-4.26,64.2,64.2,0,0,0,7.14-1.13A43.55,43.55,0,0,1,51.6,67.83Zm14.25-1.77c-2.69,2.69-7,3.35-12.11,2.3a46.23,46.23,0,0,0,3.95-10.48A46.24,46.24,0,0,0,68.15,54C69.2,59.05,68.53,63.36,65.85,66.06ZM69.5,50.69a46.51,46.51,0,0,0-4.61-10.2A46.17,46.17,0,0,0,69.5,30.31c4.35,2.86,6.93,6.38,6.93,10.18S73.85,47.83,69.5,50.69Z"/><path class="cls-1" d="M100.33,32.59c0-1.9,1.75-2.64,4.08-2.64a28.36,28.36,0,0,1,9.33,2.11V23.8a28.6,28.6,0,0,0-9.44-1.65C97.42,22.15,91,25,91,33.28c0,12.35,15.1,9.6,15.1,15.64,0,2.22-1.91,3.07-4.56,3.07a25,25,0,0,1-10.33-2.81v8.48a26.12,26.12,0,0,0,10.28,2.12c7.26,0,14-3.29,14-11.71C115.49,35.72,100.33,38.21,100.33,32.59Z"/><polygon class="cls-1" points="117.55 31.16 127.57 31.16 127.57 58.93 136.95 58.93 136.95 31.16 146.91 31.16 146.91 23.05 117.55 23.05 117.55 31.16"/><polygon class="cls-1" points="160 44.62 172.5 44.62 172.5 36.52 160 36.52 160 31.16 174.41 31.16 174.41 23.05 150.67 23.05 150.67 58.93 174.62 58.93 174.62 50.83 160 50.83 160 44.62"/><polygon class="cls-1" points="198.84 38.85 189.99 23.05 180.45 23.05 180.45 58.93 189.41 58.93 189.41 49.29 188.72 38.74 188.93 38.74 195.92 50.4 201.33 50.4 208.38 38.48 208.59 38.48 207.96 49.6 207.96 58.93 216.91 58.93 216.91 23.05 207.69 23.05 198.84 38.85"/><path class="cls-1" d="M233.94,43a18.22,18.22,0,0,0,7.58-1.48V31.89h-5V38.7a13,13,0,0,1-2,.12c-3.21,0-5-2.33-5-5.88,0-4.29,2.5-5.94,6-5.94a10.77,10.77,0,0,1,5,1.31V24A12.7,12.7,0,0,0,235,22.83c-6.16,0-10.59,3.43-10.59,10.36S228.6,43,233.94,43Z"/><path class="cls-1" d="M263.64,32.85c0-5.76-3.18-10-9.71-10-7,0-9.88,4.6-9.88,10.28,0,6,3.15,9.88,9.74,9.88C260.66,43,263.64,38.47,263.64,32.85Zm-9.8,5.94c-3.35,0-4.57-2.62-4.57-5.88,0-3,1.19-5.88,4.57-5.88s4.58,2.64,4.58,5.88S257.22,38.79,253.84,38.79Z"/><polygon class="cls-1" points="271.39 34.87 278.09 34.87 278.09 30.52 271.39 30.52 271.39 27.66 279.12 27.66 279.12 23.31 266.39 23.31 266.39 42.54 279.23 42.54 279.23 38.19 271.39 38.19 271.39 34.87"/><path class="cls-1" d="M286.67,28.42c0-1,.94-1.42,2.19-1.42a15,15,0,0,1,5,1.14V23.71a15.29,15.29,0,0,0-5.05-.88c-3.69,0-7.16,1.53-7.16,6,0,6.62,8.1,5.14,8.1,8.38,0,1.19-1,1.65-2.45,1.65a13.38,13.38,0,0,1-5.53-1.51v4.54A14.06,14.06,0,0,0,287.27,43c3.89,0,7.52-1.76,7.52-6.28C294.79,30.1,286.67,31.43,286.67,28.42Z"/><path class="cls-1" d="M319.87,29.1c0-3.77-2.22-5.79-7.5-5.79H305V42.54h5V35.89h2.27l3.52,6.65h5.68l-4.65-8.44A6.16,6.16,0,0,0,319.87,29.1Zm-7.62,2.62H310V27.6h2.33c1.59,0,2.5.45,2.5,1.93S313.93,31.72,312.25,31.72Z"/><polygon class="cls-1" points="336.16 38.19 328.33 38.19 328.33 34.87 335.03 34.87 335.03 30.52 328.33 30.52 328.33 27.66 336.05 27.66 336.05 23.31 323.33 23.31 323.33 42.54 336.16 42.54 336.16 38.19"/><path class="cls-1" d="M356,32.68c0-6.19-3.43-9.37-10-9.37H339.2V42.54h6.51C352.63,42.54,356,39.3,356,32.68Zm-10.56,5.54H344.2V27.57h1.33c3.78,0,5.37,1.53,5.37,5.2C350.9,36.8,349.45,38.22,345.48,38.22Z"/><polygon class="cls-1" points="233.03 55.45 233 55.45 227.84 47.86 225.63 47.86 225.63 58.92 227.57 58.92 227.57 50.83 227.62 50.83 233.09 58.92 234.96 58.92 234.96 47.86 233.03 47.86 233.03 55.45"/><path class="cls-1" d="M245.16,47.64c-3.84,0-5.56,2.55-5.56,5.8s1.7,5.72,5.47,5.72,5.55-2.55,5.55-5.8S249,47.64,245.16,47.64Zm0,9.86c-2.57,0-3.48-1.89-3.48-4.1s.91-4.12,3.52-4.12,3.41,1.95,3.41,4.12S247.58,57.5,245.12,57.5Z"/><path class="cls-1" d="M263.06,50.93c0-1.83-1.07-3.07-3.76-3.07h-4.25V58.92h2v-4.4h1.78l2.73,4.4h2.27L260.71,54A3.28,3.28,0,0,0,263.06,50.93Zm-4,2h-2V49.57h2.12c1.45,0,1.93.76,1.93,1.58C261.09,52.14,260.33,52.88,259,52.88Z"/><polygon class="cls-1" points="266.61 49.57 270.04 49.57 270.04 58.92 272.03 58.92 272.03 49.57 275.44 49.57 275.44 47.86 266.61 47.86 266.61 49.57"/><polygon class="cls-1" points="286.46 52.44 281.26 52.44 281.26 47.86 279.27 47.86 279.27 58.92 281.26 58.92 281.26 54.12 286.46 54.12 286.46 58.92 288.42 58.92 288.42 47.86 286.46 47.86 286.46 52.44"/><polygon class="cls-1" points="299.18 49.57 302.61 49.57 302.61 58.92 304.6 58.92 304.6 49.57 308.01 49.57 308.01 47.86 299.18 47.86 299.18 49.57"/><polygon class="cls-1" points="313.83 54.12 318.19 54.12 318.19 52.48 313.83 52.48 313.83 49.57 318.81 49.57 318.81 47.86 311.84 47.86 311.84 58.92 318.87 58.92 318.87 57.22 313.83 57.22 313.83 54.12"/><polygon class="cls-1" points="331.75 47.86 329.58 47.86 326.97 51.81 324.46 47.86 322.14 47.86 325.71 53.3 321.86 58.92 324.02 58.92 326.91 54.6 329.7 58.92 332.01 58.92 328.16 53.14 331.75 47.86"/><path class="cls-1" d="M338.47,47.86l-3.93,11.06h2l.92-2.61h4.36l.92,2.61h2.09l-4-11.06Zm-.64,6.83,1.75-4.88h0l1.78,4.88Z"/><path class="cls-1" d="M350.31,50.69c0-1,.77-1.39,1.81-1.39a8.27,8.27,0,0,1,2.69.55V48.08a9,9,0,0,0-2.73-.46c-2.05,0-3.82.88-3.82,3.17,0,3.57,5,2.81,5,5.08,0,1.18-.8,1.63-1.88,1.63a8.53,8.53,0,0,1-3.22-.83V58.5a8,8,0,0,0,3.18.66c2.1,0,4-.94,4-3.41C355.31,52,350.31,53,350.31,50.69Z"/></svg>