<svg id="Layer_1" data-name="Layer 1" xmlns="http://www.w3.org/2000/svg" viewBox="0 0 360 81.5"><defs><style>.cls-1{fill:#e1251b;}.cls-2{fill:#f18a00;}.cls-3{fill:#36b0c9;}.cls-4{fill:#80bc00;}.cls-5{fill:#863399;}.cls-6{fill:#231f20;}</style></defs><path class="cls-1" d="M44.44,32.2a4.08,4.08,0,0,0-3.7,1.9l-.4.65-.4-.65a4.08,4.08,0,0,0-3.7-1.9,5.25,5.25,0,0,0-5.12,5.42c0,5.18,5.42,8.88,9.2,11.3,3.85-2.42,9.26-6.12,9.24-11.3A5.25,5.25,0,0,0,44.44,32.2Z"/><path class="cls-2" d="M25.23,58.45c-.8-.17-1.58-.36-2.36-.55a46.44,46.44,0,0,0,3.94,10.45c.7-.14,1.41-.31,2.14-.52A43.06,43.06,0,0,1,25.23,58.45Z"/><path class="cls-2" d="M59.64,36.45c-.07-1.31-.16-2.59-.29-3.85a66.85,66.85,0,0,0-1.12-7.15c-.17-.81-.35-1.59-.55-2.36a46.44,46.44,0,0,0-3.94-10.47c-.36-.67-.73-1.32-1.12-1.93C49.29,5.38,45,2.22,40.28,2.22h0c-4.73,0-9,3.16-12.35,8.48.71.16,1.42.35,2.15.57C33,6.92,36.47,4.34,40.27,4.34s7.34,2.57,10.2,6.93c.39.59.77,1.22,1.13,1.88a42.75,42.75,0,0,1,3.72,9.39q.32,1.13.6,2.31c.35,1.55.66,3.15.91,4.81.18,1.23.34,2.5.46,3.79q.33,3.42.33,7c0,2.41-.11,4.77-.33,7-.12,1.29-.27,2.56-.46,3.8-.25,1.65-.57,3.25-.92,4.8-.19.79-.38,1.55-.59,2.3a43.55,43.55,0,0,1-3.72,9.4c-.37.66-.75,1.29-1.14,1.88-2.86,4.35-6.38,6.94-10.18,6.94h0c-3.8,0-7.32-2.58-10.19-6.93-.73.22-1.44.4-2.15.56,3.33,5.32,7.61,8.48,12.33,8.49h0c4.73,0,9-3.16,12.35-8.49.39-.61.76-1.25,1.12-1.92a46.23,46.23,0,0,0,3.95-10.48q.29-1.14.54-2.34a69.47,69.47,0,0,0,1.12-7.15c.13-1.26.22-2.55.29-3.86s.1-2.67.1-4S59.71,37.78,59.64,36.45Z"/><path class="cls-2" d="M24.64,24.86c-.78.18-1.56.38-2.31.59a67.05,67.05,0,0,0-1.12,7.14q1.21-1.49,2.55-3C24,28,24.29,26.38,24.64,24.86Z"/><path class="cls-2" d="M29,13.15c-.73-.2-1.44-.38-2.14-.52A46.62,46.62,0,0,0,22.87,23.1c.77-.19,1.56-.38,2.36-.55A43.24,43.24,0,0,1,29,13.15Z"/><path class="cls-2" d="M22.93,40.49c0-2.42.14-4.77.36-7.07-.84,1-1.63,2-2.38,3-.06,1.32-.1,2.67-.1,4s0,2.71.1,4c.74,1,1.53,2,2.35,3C23.05,45.26,22.93,42.9,22.93,40.49Z"/><path class="cls-2" d="M23.73,51.33q-1.32-1.47-2.52-2.94a66.88,66.88,0,0,0,1.11,7.15c.76.21,1.53.41,2.32.59C24.28,54.59,24,53,23.73,51.33Z"/><path class="cls-3" d="M62.39,40.5c.43-.68.83-1.37,1.22-2a68.09,68.09,0,0,0-4.26-5.85c.13,1.26.22,2.54.29,3.85C60.64,37.8,61.55,39.16,62.39,40.5Z"/><path class="cls-3" d="M69.5,50.69a46.51,46.51,0,0,0-4.61-10.2c-.41.69-.83,1.38-1.28,2.07a43,43,0,0,1,4,9.26C68.28,51.46,68.91,51.08,69.5,50.69Z"/><path class="cls-3" d="M70.08,52.84c-.62.38-1.26.75-1.93,1.11,1,5.1.38,9.41-2.3,12.11s-7,3.35-12.11,2.3c-.36.67-.73,1.31-1.12,1.92,6.12,1.4,11.37.62,14.72-2.72h0C70.68,64.21,71.47,59,70.08,52.84Z"/><path class="cls-3" d="M40.28,65.11a46.58,46.58,0,0,0,10.18,4.6c.39-.59.77-1.22,1.14-1.88a43,43,0,0,1-9.28-4Q41.3,64.49,40.28,65.11Z"/><path class="cls-3" d="M56.83,29.66c-.89-1-1.82-2-2.79-2.93s-1.94-1.9-2.93-2.79-2-1.71-2.93-2.51a67.56,67.56,0,0,0-5.84-4.27c-.69-.45-1.38-.87-2.06-1.28a46.51,46.51,0,0,0-10.2-4.61c-.73-.22-1.44-.41-2.15-.57-6.12-1.4-11.37-.61-14.71,2.72h0C9.87,16.78,9.08,22,10.47,28.15c.17.71.36,1.43.58,2.15a46.24,46.24,0,0,0,4.61,10.19c.41.69.83,1.37,1.28,2.06a68.14,68.14,0,0,0,4.27,5.84q1.2,1.47,2.52,2.94c.89,1,1.81,2,2.78,2.93s1.95,1.89,2.93,2.78c1.24.19,2.51.35,3.8.47-1.77-1.46-3.52-3-5.23-4.75s-3.29-3.46-4.75-5.23c-.82-1-1.61-2-2.35-3q-1.48-2-2.75-4c-.43-.68-.83-1.37-1.22-2.05a43.19,43.19,0,0,1-4-9.27c-.21-.73-.38-1.44-.53-2.14-1.05-5.1-.38-9.41,2.31-12.1s7-3.35,12.1-2.3c.7.14,1.41.32,2.14.52a43.19,43.19,0,0,1,9.27,4c.68.38,1.37.79,2.06,1.22q2,1.26,4,2.75c1,.74,2,1.53,3,2.35,1.77,1.46,3.52,3,5.22,4.75s3.29,3.45,4.75,5.22C57.17,32.16,57,30.89,56.83,29.66Z"/><path class="cls-3" d="M32.38,59.56a69.62,69.62,0,0,0,5.83,4.27c.68-.39,1.37-.8,2.06-1.23-1.34-.83-2.68-1.75-4-2.74C34.93,59.79,33.65,59.69,32.38,59.56Z"/><path class="cls-4" d="M51.6,13.15c-.36-.66-.74-1.29-1.13-1.88a46.44,46.44,0,0,0-10.19,4.61c.68.41,1.37.83,2.06,1.28A42.42,42.42,0,0,1,51.6,13.15Z"/><path class="cls-4" d="M40.28,18.38c-.69-.43-1.38-.84-2.06-1.22a66.06,66.06,0,0,0-5.84,4.27c1.26-.13,2.55-.23,3.85-.3Q38.25,19.65,40.28,18.38Z"/><path class="cls-4" d="M67.35,13.43h0c-3.35-3.33-8.6-4.13-14.72-2.73.39.61.76,1.26,1.12,1.93,5.1-1,9.41-.38,12.1,2.3s3.35,7,2.3,12.11c-.14.7-.32,1.41-.52,2.14a43.25,43.25,0,0,1-4,9.28c-.39.68-.79,1.37-1.22,2q-1.26,2-2.75,4c-.07,1.31-.16,2.6-.29,3.86a67.86,67.86,0,0,0,4.26-5.83c.45-.69.87-1.38,1.28-2.07A46.17,46.17,0,0,0,69.5,30.31q.33-1.1.57-2.16C71.47,22,70.68,16.78,67.35,13.43Z"/><path class="cls-4" d="M20.91,36.46c.75-1,1.54-2,2.38-3,1.45-1.75,3-3.5,4.72-5.19s3.45-3.29,5.22-4.75c-1.29.12-2.55.28-3.79.46-1,.89-2,1.82-2.93,2.79s-1.87,1.92-2.75,2.89-1.74,2-2.55,3a70.47,70.47,0,0,0-4.27,5.85c.39.68.79,1.37,1.22,2.05C19,39.15,19.92,37.8,20.91,36.46Z"/><path class="cls-4" d="M16.94,42.55c-.45-.69-.87-1.37-1.28-2.06a47.4,47.4,0,0,0-4.61,10.19q.9.59,1.89,1.14A43.12,43.12,0,0,1,16.94,42.55Z"/><path class="cls-4" d="M47.33,57.51c-1,.82-2,1.61-3,2.35q-2,1.48-4,2.74c-.69.43-1.38.84-2.06,1.23a43.34,43.34,0,0,1-9.26,4c-.73.21-1.44.38-2.14.52-5.09,1.06-9.4.4-12.1-2.29s-3.35-7-2.3-12.1c-.67-.36-1.31-.74-1.92-1.13C9.09,59,9.87,64.21,13.21,67.55h0c3.34,3.34,8.6,4.13,14.72,2.72.71-.16,1.42-.34,2.15-.56a46.92,46.92,0,0,0,10.19-4.61q1-.61,2-1.29a69.8,69.8,0,0,0,5.86-4.26c1-.8,2-1.64,2.93-2.52s2-1.81,2.93-2.78,1.9-1.95,2.79-2.93c.19-1.24.34-2.51.46-3.8-1.46,1.77-3,3.52-4.75,5.23S49.09,56.05,47.33,57.51Z"/><path class="cls-5" d="M48.18,21.43c1,.8,2,1.63,2.93,2.51,1.66.25,3.26.56,4.81.91q-.29-1.19-.6-2.31A64.63,64.63,0,0,0,48.18,21.43Z"/><path class="cls-5" d="M67.62,29.17c.2-.73.38-1.44.52-2.14a46.53,46.53,0,0,0-10.46-3.94c.2.77.38,1.55.55,2.36A43,43,0,0,1,67.62,29.17Z"/><path class="cls-5" d="M48.18,59.56a64.2,64.2,0,0,0,7.14-1.13c.21-.75.4-1.51.59-2.3-1.55.36-3.15.66-4.8.91C50.14,57.92,49.16,58.76,48.18,59.56Z"/><path class="cls-5" d="M70.07,28.15q-.24,1.07-.57,2.16c4.35,2.86,6.93,6.38,6.93,10.18s-2.58,7.34-6.93,10.2c-.59.39-1.22.77-1.87,1.13a43.24,43.24,0,0,1-9.4,3.72q-.25,1.2-.54,2.34A46.24,46.24,0,0,0,68.15,54c.67-.36,1.31-.73,1.93-1.11,5.31-3.34,8.47-7.62,8.47-12.34h0C78.55,35.77,75.39,31.49,70.07,28.15Z"/><path class="cls-5" d="M22.33,25.45c.75-.21,1.53-.41,2.31-.59,1.55-.36,3.15-.67,4.8-.92,1.24-.18,2.5-.34,3.79-.46,2.28-.22,4.64-.33,7.05-.33s4.76.11,7,.33c-1-.82-2-1.61-3-2.35-1.33-.07-2.67-.1-4-.1s-2.72,0-4.05.1-2.59.17-3.85.3a67.25,67.25,0,0,0-7.15,1.12c-.8.17-1.59.36-2.36.55A47.11,47.11,0,0,0,12.4,27c.15.7.32,1.41.53,2.14A43,43,0,0,1,22.33,25.45Z"/><path class="cls-5" d="M33.24,57.51c-1.29-.12-2.56-.28-3.8-.47-1.65-.25-3.26-.55-4.8-.91-.79-.18-1.56-.38-2.32-.59a42.86,42.86,0,0,1-9.38-3.72q-1-.55-1.89-1.14C6.71,47.82,4.12,44.3,4.12,40.5s2.58-7.33,6.93-10.2c-.22-.72-.41-1.44-.58-2.15C5.16,31.49,2,35.76,2,40.49H2c0,4.73,3.17,9,8.49,12.34.61.39,1.25.77,1.92,1.13A46.53,46.53,0,0,0,22.87,57.9c.78.19,1.56.38,2.36.55a67.28,67.28,0,0,0,7.15,1.11c1.27.13,2.55.23,3.86.3s2.67.1,4,.1,2.71,0,4-.1c1-.74,2-1.53,3-2.35q-3.44.33-7,.33T33.24,57.51Z"/><path class="cls-6" d="M113.74,32.06A28.36,28.36,0,0,0,104.41,30c-2.33,0-4.08.74-4.08,2.64,0,5.62,15.16,3.13,15.16,15.48,0,8.42-6.79,11.71-14,11.71a26.12,26.12,0,0,1-10.28-2.12V49.18A25,25,0,0,0,101.49,52c2.65,0,4.56-.85,4.56-3.07,0-6-15.1-3.29-15.1-15.64C91,25,97.42,22.15,104.3,22.15a28.6,28.6,0,0,1,9.44,1.65Z"/><path class="cls-6" d="M137,58.93h-9.38V31.16h-10v-8.1h29.36v8.1H137Z"/><path class="cls-6" d="M150.67,23.06h23.74v8.1H160v5.36h12.5v8.1H160v6.2h14.62v8.11h-24Z"/><path class="cls-6" d="M216.91,58.93h-9V49.61l.64-11.13h-.21l-7,11.92h-5.41l-7-11.66h-.21l.69,10.55v9.64h-9V23.06H190l8.85,15.79,8.85-15.79h9.22Z"/><path class="cls-1" d="M235.53,27c-3.49,0-6,1.65-6,5.94,0,3.55,1.76,5.88,5,5.88a13,13,0,0,0,2-.12V31.89h5v9.62A18.22,18.22,0,0,1,233.94,43c-5.34,0-9.57-3-9.57-9.8S228.8,22.83,235,22.83A12.7,12.7,0,0,1,240.53,24v4.35A10.77,10.77,0,0,0,235.53,27Z"/><path class="cls-1" d="M244.05,33.11c0-5.68,2.92-10.28,9.88-10.28,6.53,0,9.71,4.26,9.71,10S260.66,43,253.79,43C247.2,43,244.05,39.07,244.05,33.11Zm14.37-.2c0-3.24-1.2-5.88-4.58-5.88s-4.57,2.87-4.57,5.88c0,3.26,1.22,5.88,4.57,5.88S258.42,36,258.42,32.91Z"/><path class="cls-1" d="M266.39,23.31h12.73v4.35h-7.73v2.86h6.7v4.35h-6.7v3.32h7.84v4.35H266.39Z"/><path class="cls-1" d="M293.85,28.14a15,15,0,0,0-5-1.14c-1.25,0-2.19.4-2.19,1.42,0,3,8.12,1.68,8.12,8.29,0,4.52-3.63,6.28-7.52,6.28a14.06,14.06,0,0,1-5.51-1.14V37.31a13.38,13.38,0,0,0,5.53,1.51c1.42,0,2.45-.46,2.45-1.65,0-3.24-8.1-1.76-8.1-8.38,0-4.43,3.47-6,7.16-6a15.29,15.29,0,0,1,5.05.88Z"/><path class="cls-1" d="M315.8,42.54l-3.52-6.65H310v6.65h-5V23.31h7.33c5.28,0,7.5,2,7.5,5.79a6.16,6.16,0,0,1-3,5l4.65,8.44Zm-1-13c0-1.48-.91-1.93-2.5-1.93H310v4.12h2.24C313.93,31.72,314.84,31,314.84,29.53Z"/><path class="cls-1" d="M323.33,23.31h12.72v4.35h-7.72v2.86H335v4.35h-6.7v3.32h7.83v4.35H323.33Z"/><path class="cls-1" d="M345.71,42.54H339.2V23.31H346c6.59,0,10,3.18,10,9.37C356,39.3,352.63,42.54,345.71,42.54Zm-.18-15H344.2V38.22h1.28c4,0,5.42-1.42,5.42-5.45C350.9,29.1,349.31,27.57,345.53,27.57Z"/><path class="cls-1" d="M227.62,50.83h-.05v8.09h-1.94V47.86h2.21L233,55.45h0V47.86H235V58.92H233.1Z"/><path class="cls-1" d="M239.6,53.44c0-3.25,1.72-5.8,5.56-5.8s5.46,2.49,5.46,5.72-1.79,5.8-5.55,5.8S239.6,56.77,239.6,53.44Zm9,0c0-2.17-.9-4.12-3.41-4.12s-3.52,1.95-3.52,4.12.91,4.1,3.48,4.1S248.57,55.59,248.57,53.4Z"/><path class="cls-1" d="M261.55,58.92l-2.73-4.4H257v4.4h-2V47.86h4.25c2.69,0,3.76,1.24,3.76,3.07a3.28,3.28,0,0,1-2.35,3l3.11,4.94Zm-.46-7.77c0-.82-.48-1.58-1.93-1.58H257v3.31h2C260.33,52.88,261.09,52.14,261.09,51.15Z"/><path class="cls-1" d="M272,58.92h-2V49.57h-3.43V47.86h8.83v1.71H272Z"/><path class="cls-1" d="M286.46,54.12h-5.2v4.8h-2V47.86h2v4.58h5.2V47.86h2V58.92h-2Z"/><path class="cls-1" d="M304.6,58.92h-2V49.57h-3.43V47.86H308v1.71H304.6Z"/><path class="cls-1" d="M311.84,47.86h7v1.71h-5v2.91h4.35v1.64h-4.35v3.09h5v1.71h-7Z"/><path class="cls-1" d="M326.91,54.6,324,58.92h-2.17l3.86-5.62-3.57-5.44h2.32l2.51,4,2.61-4h2.17l-3.59,5.28L332,58.92H329.7Z"/><path class="cls-1" d="M344.82,58.92h-2.09l-.92-2.61h-4.36l-.92,2.61h-2l3.93-11.06h2.35Zm-5.24-9.11-1.75,4.88h3.55l-1.78-4.88Z"/><path class="cls-1" d="M348.18,58.5V56.67a8.53,8.53,0,0,0,3.22.83c1.08,0,1.88-.45,1.88-1.63,0-2.27-5-1.51-5-5.08,0-2.29,1.77-3.17,3.82-3.17a9,9,0,0,1,2.73.46v1.77a8.27,8.27,0,0,0-2.69-.55c-1,0-1.79.37-1.81,1.39,0,2.29,5,1.35,5,5.06,0,2.47-1.87,3.41-4,3.41A8,8,0,0,1,348.18,58.5Z"/></svg>