<svg xmlns="http://www.w3.org/2000/svg" width="84.808" height="66.482" viewBox="0 0 84.808 66.482">
  <g id="Group_30" data-name="Group 30" transform="translate(-843.247 -975.225)">
    <path id="Path_97" data-name="Path 97" d="M890.578,1021.628a4.868,4.868,0,0,0-4.443,2.272l-.484.788-.484-.788a4.87,4.87,0,0,0-4.444-2.272,6.3,6.3,0,0,0-6.15,6.51c-.022,6.218,6.507,10.663,11.058,13.569,4.62-2.906,11.119-7.351,11.1-13.569A6.3,6.3,0,0,0,890.578,1021.628Z" fill="#e1251b"/>
    <path id="Path_98" data-name="Path 98" d="M904.326,1019.978a1.9,1.9,0,0,1-1.389-.6,23.447,23.447,0,0,0-34.571,0,1.91,1.91,0,1,1-2.78-2.621,27.267,27.267,0,0,1,40.128,0,1.91,1.91,0,0,1-1.388,3.22Z" fill="#80bc00"/>
    <path id="Path_99" data-name="Path 99" d="M904.326,1019.978a1.9,1.9,0,0,1-1.389-.6,23.447,23.447,0,0,0-34.571,0,1.91,1.91,0,1,1-2.78-2.621,27.267,27.267,0,0,1,40.128,0,1.91,1.91,0,0,1-1.388,3.22Z" fill="#80bc00"/>
    <path id="Path_100" data-name="Path 100" d="M845.157,996.835a1.909,1.909,0,0,1-1.39-3.22,56.891,56.891,0,0,1,83.768,0,1.91,1.91,0,0,1-2.78,2.621,53.068,53.068,0,0,0-78.208,0A1.909,1.909,0,0,1,845.157,996.835Z" fill="#80bc00"/>
    <path id="Path_101" data-name="Path 101" d="M912.188,1012.91a1.909,1.909,0,0,1-1.39-.6,34.127,34.127,0,0,0-50.3,0,1.91,1.91,0,1,1-2.78-2.621,37.948,37.948,0,0,1,55.856,0,1.909,1.909,0,0,1-1.39,3.22Z" fill="#80bc00"/>
    <path id="Path_102" data-name="Path 102" d="M918.085,1004.111a1.907,1.907,0,0,1-1.39-.6,42.132,42.132,0,0,0-62.089,0,1.91,1.91,0,1,1-2.78-2.62,45.953,45.953,0,0,1,67.649,0,1.91,1.91,0,0,1-1.39,3.22Z" fill="#80bc00"/>
  </g>
</svg>
